<?xml version="1.0" encoding="utf-8"?>
<!-- Generator: Adobe Illustrator 16.0.0, SVG Export Plug-In . SVG Version: 6.00 Build 0)  -->
<!DOCTYPE svg PUBLIC "-//W3C//DTD SVG 1.1//EN" "http://www.w3.org/Graphics/SVG/1.1/DTD/svg11.dtd">
<svg version="1.1" id="Layer_1" xmlns="http://www.w3.org/2000/svg" xmlns:xlink="http://www.w3.org/1999/xlink" x="0px" y="0px"
	 width="115.097px" height="110.329px" viewBox="0 0 115.097 110.329" enable-background="new 0 0 115.097 110.329"
	 xml:space="preserve">
<g>
	<path fill="#2C2255" d="M33.121,69.272H16.377c2.217,7.605,6.331,14.422,12.354,20.445c9.602,9.604,21.148,14.398,34.65,14.398
		c2.699,0,5.314-0.201,7.854-0.584c10.17-1.535,19.074-6.133,26.703-13.814c6.062-6.021,10.205-12.84,12.439-20.445h-6.795h-9.936
		H33.121z"/>
	<g>
		<path fill="#2C2255" d="M23.888,46.53h-8.747c-0.32,1.922-0.538,3.885-0.637,5.896H24.9h5.215h75.275h6.871
			c-0.1-2.012-0.318-3.975-0.641-5.896"/>
		<path fill="#2C2255" d="M14.504,57.901c0.099,2.014,0.316,3.975,0.637,5.896h9.094h6.893h73.648h6.846
			c0.322-1.922,0.542-3.883,0.642-5.896"/>
	</g>
	<path fill="#2C2255" d="M110.379,41.053c-2.232-7.625-6.376-14.473-12.441-20.539C90.329,12.906,81.45,8.34,71.313,6.803
		c-2.564-0.389-5.205-0.592-7.932-0.592c-13.502,0-25.049,4.769-34.65,14.303c-6.025,6.066-10.141,12.914-12.357,20.539"/>
	<g>
		<path fill="#F7941E" d="M11.597,55.165c0-25.824,19.395-47.281,44.626-51.055c-0.626-0.023-1.255-0.049-1.887-0.049
			c-28.314,0-51.269,22.881-51.269,51.104c0,28.225,22.954,51.104,51.269,51.104c0.634,0,1.263-0.023,1.891-0.047
			C30.992,102.448,11.597,80.991,11.597,55.165z"/>
	</g>
	<g>
		
			<linearGradient id="SVGID_1_" gradientUnits="userSpaceOnUse" x1="434.3833" y1="475.0698" x2="434.3833" y2="548.7047" gradientTransform="matrix(1 0 0 -1 -371 585.8291)">
			<stop  offset="0.3033" style="stop-color:#473788"/>
			<stop  offset="0.872" style="stop-color:#2C2255"/>
		</linearGradient>
		<path fill="url(#SVGID_1_)" d="M96.65,52.424c-0.164-2.021-0.504-3.991-1.012-5.896h-64.51c-0.508,1.902-0.849,3.874-1.013,5.896
			H96.65z"/>
		
			<linearGradient id="SVGID_2_" gradientUnits="userSpaceOnUse" x1="434.3833" y1="475.0591" x2="434.3833" y2="548.7062" gradientTransform="matrix(1 0 0 -1 -371 585.8291)">
			<stop  offset="0.3033" style="stop-color:#473788"/>
			<stop  offset="0.872" style="stop-color:#2C2255"/>
		</linearGradient>
		<path fill="url(#SVGID_2_)" d="M96.65,57.901H30.116c0.164,2.021,0.503,3.991,1.012,5.896h64.511
			C96.147,61.893,96.486,59.922,96.65,57.901z"/>
		
			<linearGradient id="SVGID_3_" gradientUnits="userSpaceOnUse" x1="434.3833" y1="475.0688" x2="434.3833" y2="548.7021" gradientTransform="matrix(1 0 0 -1 -371 585.8291)">
			<stop  offset="0.3033" style="stop-color:#473788"/>
			<stop  offset="0.8631" style="stop-color:#2C2255"/>
		</linearGradient>
		<path fill="url(#SVGID_3_)" d="M63.383,88.553c13.397,0,24.945-7.893,30.263-19.281H33.12
			C38.438,80.661,49.986,88.553,63.383,88.553z"/>
	</g>
	<g>
		<path fill="#FFFFFF" d="M25.185,57.901h4.884h66.706h8.763h6.657c0.046-0.871,0.072-1.748,0.072-2.632
			c0-0.955-0.035-1.901-0.089-2.845h-6.641h-8.763H30.068h-5.229H14.504c-0.054,0.941-0.089,1.89-0.089,2.845
			c0,0.884,0.026,1.761,0.072,2.632H25.185z"/>
		<path fill="#FFFFFF" d="M32.925,41.053H16.373c-0.544,1.783-0.895,3.613-1.232,5.478h8.525h7.259h64.679h9.16h6.547
			c-0.338-1.862-0.773-3.692-1.316-5.478"/>
		<path fill="#FFFFFF" d="M105.023,63.795h-9.16H31.185h-6.912H15.14c0.328,1.863,0.701,3.691,1.236,5.477h16.807h60.682h9.962
			h6.488c0.534-1.783,0.965-3.611,1.294-5.477H105.023z"/>
	</g>
</g>
</svg>
